<svg width="40" height="41" viewBox="0 0 40 41" fill="none" xmlns="http://www.w3.org/2000/svg">
<g clip-path="url(#clip0_844_59)">
<path d="M13.3332 40.5001C17.0132 40.5001 19.9998 37.5134 19.9998 33.8334V27.1667H13.3332C9.65317 27.1667 6.6665 30.1534 6.6665 33.8334C6.6665 37.5134 9.65317 40.5001 13.3332 40.5001Z" fill="#A3A3A3"/>
<path d="M6.6665 20.4999C6.6665 16.8199 9.65317 13.8333 13.3332 13.8333H19.9998V27.1666H13.3332C9.65317 27.1666 6.6665 24.1799 6.6665 20.4999Z" fill="#A3A3A3"/>
<path d="M6.6665 7.16667C6.6665 3.48667 9.65317 0.5 13.3332 0.5H19.9998V13.8333H13.3332C9.65317 13.8333 6.6665 10.8467 6.6665 7.16667Z" fill="#A3A3A3"/>
<path d="M19.9998 0.5H26.6665C30.3465 0.5 33.3331 3.48667 33.3331 7.16667C33.3331 10.8467 30.3465 13.8333 26.6665 13.8333H19.9998V0.5Z" fill="#A3A3A3"/>
<path d="M33.3331 20.4999C33.3331 24.1799 30.3465 27.1666 26.6665 27.1666C22.9865 27.1666 19.9998 24.1799 19.9998 20.4999C19.9998 16.8199 22.9865 13.8333 26.6665 13.8333C30.3465 13.8333 33.3331 16.8199 33.3331 20.4999Z" fill="#A3A3A3"/>
</g>
<defs>
<clipPath id="clip0_844_59">
<rect width="40" height="40" fill="white" transform="translate(0 0.5)"/>
</clipPath>
</defs>
</svg>
