<svg width="118" height="44" viewBox="0 0 118 44" fill="none" xmlns="http://www.w3.org/2000/svg">
<path d="M32.7842 19.124C32.1736 19.7384 31.706 20.4798 31.4147 21.2953C31.1235 22.111 31.0157 22.9809 31.099 23.843L31.07 23.814C31.1557 24.8288 31.0187 25.85 30.669 26.8065C30.3192 27.7628 29.765 28.6314 29.045 29.3515C28.3248 30.0715 27.4562 30.6259 26.4997 30.9755C25.5434 31.3253 24.5221 31.4623 23.5074 31.3765L23.5364 31.4055C22.3226 31.2926 21.1035 31.5567 20.0451 32.162C18.987 32.7673 18.1411 33.6841 17.6231 34.7878C17.1052 35.8914 16.94 37.1277 17.1504 38.3287C17.361 39.5294 17.9367 40.6361 18.7991 41.4977C19.6615 42.3593 20.7687 42.934 21.9696 43.1433C23.1707 43.3527 24.4069 43.1865 25.51 42.6675C26.6131 42.1484 27.5292 41.302 28.1336 40.2431C28.7379 39.1843 29.001 37.965 28.8869 36.7512L28.9175 36.7802C28.8318 35.7655 28.9686 34.7443 29.3184 33.7877C29.6681 32.8314 30.2225 31.9628 30.9425 31.2427C31.6627 30.5227 32.5312 29.9683 33.4876 29.6187C34.4441 29.2689 35.4652 29.1319 36.4801 29.2177L36.4495 29.1887C37.4409 29.2778 38.439 29.1152 39.3511 28.716C40.263 28.3167 41.0595 27.6937 41.6666 26.9047C42.2736 26.1158 42.6719 25.1862 42.824 24.2024C42.9762 23.2185 42.8776 22.2122 42.5374 21.2765C42.1971 20.3409 41.6261 19.5064 40.8774 18.8502C40.1288 18.194 39.2265 17.7374 38.2544 17.5228C37.2822 17.3082 36.2716 17.3423 35.3162 17.6222C34.3608 17.9022 33.4916 18.4187 32.789 19.124H32.7842Z" fill="#262626"/>
<path d="M20.8988 27.6064L20.8682 27.5774C21.7306 27.6642 22.6016 27.5583 23.4182 27.2674C24.2347 26.9764 24.9765 26.5077 25.5897 25.895C26.2027 25.2823 26.6722 24.5409 26.9636 23.7245C27.2553 22.9082 27.3618 22.0374 27.2756 21.1748L27.3062 21.2038C27.2205 20.189 27.3574 19.1678 27.707 18.2113C28.0568 17.255 28.6112 16.3864 29.3312 15.6662C30.0513 14.9462 30.9199 14.3919 31.8762 14.0422C32.8328 13.6924 33.8539 13.5556 34.8687 13.6412L34.8381 13.6122C36.0521 13.7263 37.2715 13.463 38.3304 12.8584C39.3893 12.2538 40.2358 11.3373 40.7546 10.2339C41.2734 9.13052 41.4392 7.89394 41.2294 6.69284C41.0196 5.49174 40.4445 4.38462 39.5822 3.52245C38.7201 2.66029 37.6129 2.08506 36.4118 1.87526C35.2108 1.66545 33.9742 1.83125 32.8708 2.35006C31.7673 2.86885 30.8509 3.71541 30.2463 4.77425C29.6416 5.83307 29.3784 7.05263 29.4924 8.26657L29.4634 8.23596C29.5493 9.25079 29.4127 10.2721 29.0631 11.2287C28.7135 12.1852 28.1591 13.0539 27.4391 13.7742C26.7189 14.4942 25.8502 15.0485 24.8937 15.3982C23.937 15.7478 22.9157 15.8844 21.9009 15.7985L21.9299 15.8291C21.0675 15.7423 20.1963 15.8481 19.3798 16.1391C18.5633 16.4299 17.8216 16.8987 17.2084 17.5115C16.5952 18.1242 16.1259 18.8656 15.8343 19.6819C15.5428 20.4983 15.4363 21.3691 15.5225 22.2317L15.4935 22.2027C15.5789 23.2174 15.4418 24.2385 15.092 25.1948C14.7421 26.151 14.1879 27.0196 13.4679 27.7396C12.7478 28.4596 11.8793 29.0138 10.923 29.3638C9.96675 29.7135 8.94564 29.8506 7.93095 29.7652L7.95995 29.7942C6.74601 29.6802 5.52644 29.9434 4.46761 30.5481C3.40878 31.1527 2.56223 32.0691 2.04343 33.1726C1.52462 34.276 1.35881 35.5126 1.56862 36.7136C1.77844 37.9147 2.35367 39.0219 3.21582 39.884C4.07799 40.7463 5.18511 41.3214 6.38621 41.5312C7.58731 41.741 8.82389 41.5752 9.92729 41.0564C11.0307 40.5376 11.9472 39.6911 12.5518 38.6323C13.1564 37.5733 13.4197 36.3539 13.3056 35.1399L13.3362 35.1689C13.2505 34.1541 13.3875 33.1329 13.7372 32.1764C14.0868 31.2201 14.6412 30.3515 15.3612 29.6314C16.0814 28.9114 16.9499 28.357 17.9063 28.0074C18.8628 27.6576 19.8839 27.5206 20.8988 27.6064Z" fill="#262626"/>
<path d="M10.1015 24.3727C10.7121 23.7585 11.1797 23.0171 11.4707 22.2014C11.7617 21.3857 11.8691 20.5157 11.7851 19.6538L11.8157 19.6828C11.73 18.6678 11.8669 17.6462 12.2168 16.6895C12.5668 15.7328 13.1214 14.8641 13.8419 14.1439C14.5623 13.4238 15.4312 12.8696 16.3881 12.5201C17.3449 12.1705 18.3665 12.034 19.3815 12.1202L19.3509 12.0912C20.5644 12.2049 21.7835 11.9415 22.8418 11.3369C23.9002 10.7324 24.7462 9.81612 25.2648 8.71308C25.7833 7.61001 25.9489 6.37389 25.7391 5.17324C25.5293 3.97259 24.9542 2.86589 24.0924 2.00404C23.2306 1.14219 22.1238 0.567154 20.9232 0.357356C19.7226 0.147541 18.4864 0.313195 17.3834 0.831683C16.2803 1.35017 15.364 2.19628 14.7595 3.25462C14.1549 4.31296 13.8915 5.53202 14.0052 6.74554L13.9762 6.71654C14.0619 7.7313 13.925 8.75253 13.5752 9.70895C13.2254 10.6654 12.6713 11.5339 11.9512 12.254C11.2311 12.9741 10.3625 13.5284 9.40607 13.8781C8.44965 14.2279 7.42843 14.3648 6.41367 14.2791L6.44267 14.3081C5.45114 14.2192 4.45321 14.382 3.54135 14.7814C2.62949 15.1808 1.8332 15.804 1.22628 16.5931C0.619358 17.3821 0.221445 18.3117 0.0693888 19.2955C-0.0826518 20.2794 0.0160932 21.2857 0.356473 22.2211C0.696852 23.1566 1.26788 23.991 2.01661 24.6471C2.76534 25.3033 3.66756 25.7597 4.63968 25.9743C5.61177 26.1887 6.62231 26.1544 7.57765 25.8746C8.53297 25.5946 9.40217 25.078 10.1047 24.3727H10.1015Z" fill="#262626"/>
<path d="M61.7109 16.1599V19.8416H51.1223V16.1599H61.7109ZM53.5295 11.9748H58.3912V28.3377C58.3912 28.9251 58.5223 29.3604 58.7845 29.6436C59.0467 29.9163 59.4663 30.0526 60.0432 30.0526C60.232 30.0526 60.4418 30.0369 60.6725 30.0054C60.9033 29.974 61.1026 29.9372 61.2704 29.8953L62.0413 33.5455C61.5064 33.7028 60.9872 33.8182 60.4837 33.8916C59.9907 33.965 59.503 34.0017 59.0205 34.0017C57.2688 34.0017 55.9158 33.5664 54.9613 32.6959C54.0068 31.8148 53.5295 30.5771 53.5295 28.9827V11.9748ZM63.835 33.75V16.1599H68.6966V33.75H63.835ZM66.2579 13.91C65.5342 13.91 64.9153 13.6688 64.4014 13.1863C63.8874 12.7038 63.6304 12.1217 63.6304 11.4399C63.6304 10.7581 63.8874 10.1812 64.4014 9.7092C64.9153 9.22671 65.5342 8.98546 66.2579 8.98546C66.9922 8.98546 67.6162 9.22671 68.1302 9.7092C68.6442 10.1812 68.9011 10.7581 68.9011 11.4399C68.9011 12.1217 68.6442 12.7038 68.1302 13.1863C67.6162 13.6688 66.9922 13.91 66.2579 13.91ZM76.5791 34.0804C75.4673 34.0804 74.4656 33.8864 73.574 33.4983C72.6929 33.0997 72.0007 32.5123 71.4972 31.7361C70.9937 30.9599 70.742 29.9949 70.742 28.8411C70.742 27.8552 70.9203 27.037 71.2769 26.3867C71.6335 25.7259 72.1213 25.191 72.7401 24.7819C73.359 24.3728 74.0617 24.0634 74.8484 23.8536C75.6351 23.6438 76.469 23.497 77.35 23.4131C78.3675 23.3187 79.1856 23.2243 79.8045 23.1299C80.4233 23.0355 80.8743 22.8939 81.1576 22.7051C81.4512 22.5058 81.5981 22.2226 81.5981 21.8555V21.7768C81.5981 21.0531 81.3673 20.4919 80.9058 20.0933C80.4548 19.6947 79.815 19.4954 78.9863 19.4954C78.1157 19.4954 77.4182 19.6895 76.8938 20.0776C76.3798 20.4552 76.0389 20.9377 75.8711 21.5251L71.3556 21.1632C71.5863 20.0933 72.0374 19.1703 72.7087 18.3941C73.38 17.6074 74.2453 17.0043 75.3047 16.5847C76.3746 16.1547 77.6123 15.9397 79.0178 15.9397C79.9933 15.9397 80.9268 16.055 81.8184 16.2858C82.7099 16.5166 83.5018 16.8732 84.1941 17.3557C84.8969 17.8277 85.4528 18.4413 85.8619 19.1965C86.2709 19.9517 86.4755 20.8485 86.4755 21.8869V33.75H81.8341V31.2956H81.7082C81.425 31.8515 81.0474 32.3392 80.5754 32.7588C80.1034 33.1679 79.537 33.493 78.8762 33.7343C78.2154 33.965 77.4497 34.0804 76.5791 34.0804ZM77.9794 30.7134C78.6926 30.7134 79.322 30.5718 79.8674 30.2886C80.4233 29.9949 80.8534 29.6068 81.1576 29.1243C81.4722 28.6314 81.6296 28.0807 81.6296 27.4723V25.6C81.4827 25.6944 81.2729 25.7836 81.0002 25.8675C80.738 25.9514 80.4443 26.0248 80.1191 26.0878C79.794 26.1507 79.4688 26.2084 79.1437 26.2609C78.8185 26.3028 78.5248 26.3448 78.2626 26.3867C77.6857 26.4706 77.1822 26.607 76.7522 26.7958C76.3221 26.9741 75.9865 27.2206 75.7452 27.5353C75.5145 27.8394 75.3991 28.2223 75.3991 28.6838C75.3991 29.3446 75.6403 29.8481 76.1228 30.1942C76.6053 30.5404 77.2242 30.7134 77.9794 30.7134ZM94.1849 23.5862V33.75H89.3232V16.1599H94.1062V19.2909H94.2793C94.6779 18.2525 95.3125 17.4344 96.183 16.8365C97.0536 16.2386 98.1445 15.9397 99.4556 15.9397C100.672 15.9397 101.732 16.2071 102.634 16.7421C103.546 17.277 104.254 18.0375 104.758 19.0234C105.261 20.0094 105.513 21.1894 105.513 22.5635V33.75H100.651V23.4288C100.651 22.3589 100.373 21.5198 99.8175 20.9115C99.2616 20.2926 98.4959 19.9832 97.5204 19.9832C96.8701 19.9832 96.2932 20.13 95.7897 20.4237C95.2862 20.7069 94.8929 21.116 94.6097 21.6509C94.3265 22.1859 94.1849 22.8309 94.1849 23.5862Z" fill="#262626"/>
</svg>
