<svg width="52" height="53" viewBox="0 0 52 53" fill="none" xmlns="http://www.w3.org/2000/svg">
<rect x="0.5" y="1" width="51" height="51" rx="9.5" stroke="#E5E5E5"/>
<path d="M25.9905 9.83325C22.6942 9.83325 19.4718 10.8107 16.731 12.6421C13.9902 14.4734 11.854 17.0764 10.5925 20.1219C9.33107 23.1673 9.00102 26.5184 9.64411 29.7514C10.2872 32.9844 11.8745 35.9542 14.2054 38.285C16.5363 40.6159 19.506 42.2033 22.739 42.8463C25.972 43.4894 29.3231 43.1594 32.3686 41.8979C35.414 40.6365 38.017 38.5002 39.8484 35.7594C41.6797 33.0186 42.6572 29.7963 42.6572 26.4999C42.6574 24.3112 42.2264 22.1438 41.3889 20.1216C40.5514 18.0995 39.3237 16.2621 37.776 14.7144C36.2284 13.1667 34.391 11.9391 32.3688 11.1016C30.3466 10.264 28.1793 9.83307 25.9905 9.83325ZM31.2897 35.0874C31.2273 35.2429 31.1324 35.3833 31.0113 35.4992C30.8902 35.6151 30.7458 35.7037 30.5876 35.7592C30.4295 35.8147 30.2613 35.8357 30.0944 35.8209C29.9274 35.806 29.7656 35.7557 29.6197 35.6732L25.0953 32.1576L22.1914 34.8366C22.124 34.8864 22.0452 34.9184 21.9622 34.9297C21.8792 34.9411 21.7947 34.9314 21.7164 34.9015L22.2731 29.9207L22.2909 29.9349L22.3023 29.8365C22.3023 29.8365 30.4439 22.424 30.7756 22.1082C31.1114 21.7932 31.0006 21.7249 31.0006 21.7249C31.0197 21.3406 30.3981 21.7249 30.3981 21.7249L19.6105 28.6649L15.118 27.1349C15.118 27.1349 14.428 26.8874 14.363 26.3433C14.2947 25.8033 15.1405 25.5099 15.1405 25.5099L33.0022 18.4141C33.0022 18.4141 34.4705 17.7599 34.4705 18.8433L31.2897 35.0874Z" fill="#A3A3A3"/>
</svg>
