<svg width="52" height="53" viewBox="0 0 52 53" fill="none" xmlns="http://www.w3.org/2000/svg">
<rect x="0.5" y="1" width="51" height="51" rx="9.5" stroke="#E5E5E5"/>
<path d="M44.5684 14.9489C43.2016 15.5561 41.7332 15.9645 40.192 16.1489C41.766 15.2061 42.9728 13.7137 43.5412 11.9341C42.07 12.8069 40.4392 13.4409 38.702 13.7837C37.3124 12.3025 35.3328 11.3769 33.1416 11.3769C28.2984 11.3121 24.5748 16.0437 25.7208 20.7309C19.3892 20.4137 13.776 17.3801 10.0168 12.7693C7.96521 16.1149 9.13001 20.8993 12.3752 22.9417C11.1268 22.9017 9.95121 22.5589 8.92441 21.9889C8.87681 25.7109 11.5172 28.8533 15.036 29.5545C13.9548 29.8561 12.7092 29.9033 11.5952 29.6857C12.5652 32.7121 15.3788 34.9161 18.7124 34.9773C15.6984 37.3857 11.4788 38.6413 7.43201 38.1325C23.7048 48.1473 41.694 35.0265 40.7652 18.8921C42.2544 17.8169 43.5472 16.4757 44.5684 14.9489Z" fill="#A3A3A3"/>
</svg>
